<svg width="1920" height="1320" viewBox="0 0 1920 1320" fill="none" xmlns="http://www.w3.org/2000/svg">
<g opacity="0.1">
<line x1="591.5" y1="0.0030139" x2="591.5" y2="1320" stroke="white"/>
<line x1="295.5" y1="0.00304465" x2="295.5" y2="1320" stroke="white"/>
<line x1="443.5" y1="0.0030139" x2="443.5" y2="1320" stroke="white"/>
<line x1="739.5" y1="0.0030139" x2="739.5" y2="1320" stroke="white"/>
<line x1="887.5" y1="0.0030139" x2="887.5" y2="1320" stroke="white"/>
<line x1="1035.5" y1="0.0030139" x2="1035.5" y2="1320" stroke="white"/>
<line x1="1183.5" y1="0.0030139" x2="1183.5" y2="1320" stroke="white"/>
<line x1="1331.5" y1="0.0030139" x2="1331.5" y2="1320" stroke="white"/>
<line x1="1479.5" y1="0.0030139" x2="1479.5" y2="1320" stroke="white"/>
<line x1="1627.5" y1="0.00301414" x2="1627.5" y2="1320" stroke="white"/>
<line x1="1775.5" y1="0.0030139" x2="1775.5" y2="1320" stroke="white"/>
<line x1="147.5" y1="0.0030139" x2="147.5" y2="1320" stroke="white"/>
<line x1="-3" y1="1026.17" x2="1923" y2="1026.17" stroke="white"/>
<line x1="-3" y1="1319.5" x2="1923" y2="1319.5" stroke="white"/>
<line x1="-3" y1="1172.83" x2="1923" y2="1172.83" stroke="white"/>
<line x1="-3" y1="879.5" x2="1923" y2="879.5" stroke="white"/>
<line x1="-3" y1="732.833" x2="1923" y2="732.833" stroke="white"/>
<line x1="-3" y1="586.167" x2="1923" y2="586.167" stroke="white"/>
<line x1="-3" y1="439.5" x2="1923" y2="439.5" stroke="white"/>
<line x1="-3" y1="292.833" x2="1923" y2="292.833" stroke="white"/>
<line x1="-3" y1="146.167" x2="1923" y2="146.167" stroke="white"/>
</g>
</svg>
