<?xml version="1.0" encoding="UTF-8"?>
<svg id="Capa_1" xmlns="http://www.w3.org/2000/svg" version="1.1" viewBox="0 0 900 1080">
  <!-- Generator: Adobe Illustrator 29.1.0, SVG Export Plug-In . SVG Version: 2.1.0 Build 142)  -->
  <path d="M360,323.3h0c0,19.9-16.1,36.1-36,36.1h0s-288,0-288,0C16.1,359.4,0,375.6,0,395.5v289C0,704.4,16.1,720.6,36,720.6c178.9,0,324-145.5,324-325.1v-1.7c0-19.6,19.5-33.5,38.6-30.1,81.4,14.4,141.4,90,141.4,176.3s-62.1,160.4-144.4,177.1c-20.5,4.1-35.6,21.7-35.6,42.7v276.9c0,25.2,21.3,45.4,46.3,43.2,276.2-23.7,493.7-256.7,493.7-539.8S682.5,23.8,406.3.2c-25-2.1-46.3,18.1-46.3,43.2v279.9Z"/>
</svg>