<?xml version="1.0" encoding="UTF-8"?>
<svg id="Capa_1" xmlns="http://www.w3.org/2000/svg" version="1.1" xmlns:xlink="http://www.w3.org/1999/xlink" viewBox="0 0 32 32">
  <!-- Generator: Adobe Illustrator 29.0.1, SVG Export Plug-In . SVG Version: 2.1.0 Build 192)  -->
  <defs>
    <style>
      .st0 {
        fill: url(#Degradado_sin_nombre_7);
      }
    </style>
    <linearGradient id="Degradado_sin_nombre_7" data-name="Degradado sin nombre 7" x1="7.5" y1="25.5" x2="26.5" y2="6.5" gradientUnits="userSpaceOnUse">
      <stop offset="0" stop-color="#3cff00"/>
      <stop offset="1" stop-color="aqua"/>
    </linearGradient>
  </defs>
  <path class="st0" d="M13.3,9.6h0c0,.6-.5,1.1-1.1,1.1h0s-8.5,0-8.5,0c-.6,0-1.1.5-1.1,1.1v8.6c0,.6.5,1.1,1.1,1.1,5.3,0,9.6-4.3,9.6-9.6h0c0-.6.6-1,1.1-.9,2.4.4,4.2,2.7,4.2,5.2s-1.8,4.8-4.3,5.2c-.6.1-1.1.6-1.1,1.3v8.2c0,.7.6,1.3,1.4,1.3,8.2-.7,14.6-7.6,14.6-16S22.9.7,14.7,0c-.7,0-1.4.5-1.4,1.3v8.3Z"/>
</svg>